<?xml version="1.0" encoding="UTF-8"?>
<svg data-bbox="0 0 449 313" xmlns="http://www.w3.org/2000/svg" viewBox="0 0 449 313" height="313" width="449" data-type="shape">
    <g>
        <path d="M0 .686c0 .378 2.248 4.941 4.995 10.14 2.747 5.2 10.607 20.708 17.467 34.465l12.472 25.013 33.55 23.863 33.551 23.863-9.47.52-9.468.52 3.193 4.39c2.2 3.026 4.368 4.712 6.977 5.431 2.082.572 14.047 3.94 26.592 7.483l22.807 6.443 11.341-5.102c6.237-2.807 11.34-5.426 11.34-5.821 0-.394-16.059-13.534-35.688-29.199-19.629-15.666-56.606-45.18-82.173-65.589C21.918 16.698.776 0 .5 0 .225 0 0 .309 0 .686Zm443.6 3.28c-2.578 2.108-39.666 31.649-82.417 65.646-42.752 33.997-77.725 62.074-77.719 62.395.006.32 4.974 3.005 11.04 5.966l11.029 5.383 18.486-5.134c10.167-2.823 22.109-6.128 26.539-7.343 7.202-1.975 8.376-2.66 11.119-6.489l3.068-4.28-8.948-1.04-8.948-1.04 33.443-23.918 33.444-23.918 9.825-19.238a26966.58 26966.58 0 0 1 17.96-35.097c4.474-8.722 7.827-15.829 7.45-15.792-.377.037-2.794 1.791-5.371 3.9ZM317.37 20.538a88859.418 88859.418 0 0 0-34.186 49.136c-16.904 24.308-31.04 44.525-31.412 44.927-.37.402-3.612-.744-7.201-2.545-11.799-5.922-27.613-5.17-41.54 1.976-2.763 1.418-5.132 2.43-5.263 2.248-.133-.181-4.796-7.115-10.365-15.408-21.324-31.76-55.214-81.68-56.126-82.674-2.324-2.534 9.127 20.537 35.357 71.235 9.026 17.444 17.045 32.233 17.821 32.863 1.85 1.505 4.375 7.855 3.781 9.513-.677 1.89-2.14 1.592-2.558-.52-.197-1.001-1.591 1.528-3.1 5.626l-2.741 7.446 4.565 15.865c2.512 8.726 4.566 16.336 4.566 16.913 0 .576-3.793-6.807-8.429-16.408l-8.43-17.456 2.235-3.931 2.233-3.931-2.276-.633c-1.525-.424-6.293 1.146-14.426 4.754l-12.146 5.386.656 3.542c.49 2.65.317 3.449-.691 3.172-.74-.204-14.241-4.696-30.002-9.983-15.76-5.287-28.808-9.458-28.994-9.269-.187.188 9.935 7.989 22.493 17.333l22.833 16.991 15.405 2.932c8.472 1.612 16.348 3.161 17.499 3.444 1.339.328 3.673 3.514 6.472 8.831 3.803 7.228 5.675 9.412 14.273 16.652 5.443 4.584 10.038 8.191 10.212 8.016.172-.176-.597-4.495-1.711-9.597-3.031-13.879-3.367-13.239 5.375-10.25 11.498 3.931 10.8 3.515 8.628 5.134-1.824 1.359-1.783 1.636 1.027 6.916 2.696 5.066 11.52 13.348 14.223 13.348 2.741 0 11.53-8.287 14.288-13.472l2.992-5.623-2.346-1.576c-2.276-1.531-2.093-1.663 6.176-4.477 4.687-1.594 8.695-2.723 8.909-2.507.353.357-2.116 15.198-3.565 21.426-.473 2.037 1.637.509 9.753-7.057 8-7.459 11.374-11.482 14.826-17.675l4.468-8.02 16.589-3.127 16.589-3.128 22.112-16.595c12.161-9.126 21.987-16.721 21.834-16.876-.153-.154-13.029 3.923-28.613 9.061-15.582 5.138-28.628 9.341-28.99 9.341-.362 0-.366-1.57-.011-3.49l.646-3.49-11.127-5.588c-9.445-4.745-14.005-6.094-15.551-4.601-.174.168.413 2.075 1.305 4.237l1.622 3.931-7.881 16.994c-4.335 9.347-8.039 16.834-8.232 16.639-.192-.196 1.874-7.648 4.595-16.56l4.944-16.205-3.914-6.589c-2.153-3.625-4.38-6.747-4.95-6.939-2.318-.783.332-10.576 2.863-10.577 2.016-.001 4.07-3.624 31.537-55.634 20.253-38.348 25.397-48.356 24.856-48.356-.182 0-1.884 2.222-3.781 4.94ZM206.412 125.693c-.009.933-.427 2.354-.93 3.158-.683 1.092-1.585.118-3.579-3.866-1.465-2.929-2.665-5.599-2.665-5.934 0-.333 1.618.643 3.595 2.17 1.977 1.526 3.587 3.538 3.579 4.472Zm41.01-2.012c-2.665 4.801-4.023 5.381-4.023 1.715 0-2.212 4.935-7.395 6.007-6.309.199.202-.693 2.269-1.984 4.594Zm-54.2 20.891c2.918.82 4.964 2.705 9.307 8.573 3.061 4.137 7.534 11.149 9.939 15.581 3.934 7.249 4.168 8.059 2.332 8.059-3.375 0-10.667-3.692-15.262-7.729-4.82-4.235-10.055-14.194-11.107-21.128-.733-4.832-.653-4.888 4.791-3.356Zm67.315 4.135c-.783 6.685-3.599 12.922-8.309 18.396-4.035 4.691-13.562 10.063-16.857 9.506-1.82-.309-1.431-1.398 3.85-10.812 8.95-15.949 11.995-20.03 15.768-21.135 6.05-1.771 6.213-1.652 5.548 4.045Zm-104.642 39.296c-5.601 6.063-9.7 12.445-11.722 18.247-1.475 4.234-1.429 4.434 5.479 23.807 3.831 10.746 7.104 18.67 7.274 17.609.168-1.062-.396-7.696-1.255-14.741l-1.562-12.812 2.736-5.089c2.959-5.505 6.788-10.161 8.357-10.161.54 0 2.916 2.34 5.281 5.201 2.365 2.859 4.725 4.934 5.245 4.609.52-.326 1.834-2.356 2.921-4.512l1.975-3.92-8.758-10.308c-4.818-5.669-9.33-10.913-10.027-11.65-1.025-1.084-2.167-.369-5.944 3.72Zm122.259 6.68-9.921 11.734 2.447 4.153c1.345 2.284 2.804 4.246 3.244 4.358.439.114 2.539-2.104 4.666-4.929 2.126-2.825 4.344-5.136 4.927-5.136 1.718 0 5.84 5.049 8.446 10.346l2.424 4.924-1.778 14.983c-.978 8.24-1.668 15.098-1.535 15.238.133.14 3.585-8.953 7.671-20.207l7.43-20.462-3.728-7.637c-2.05-4.2-6.123-10.216-9.05-13.368l-5.323-5.731-9.92 11.734Zm-99.362 27.511c-2.349 4.957-3.909 9.354-3.466 9.771.442.417 11.165 7.827 23.828 16.465 13.677 9.33 24.018 15.708 25.471 15.708 1.476 0 11.466-6.289 25.189-15.859 12.508-8.721 23.23-16.195 23.825-16.606.698-.481-.519-3.912-3.411-9.619-2.473-4.879-4.705-8.872-4.96-8.872-.254 0-6.62 4.881-14.145 10.846-7.525 5.964-15.559 11.814-17.851 12.998-5.5 2.842-11.974 2.765-17.685-.21-5.318-2.769-22.963-15.932-27.457-20.483-1.711-1.732-3.552-3.151-4.089-3.151-.538 0-2.901 4.056-5.249 9.012Zm68.715 32.208c-9.885 7.173-18.981 13.443-20.213 13.935-3.9 1.558-7.942-.559-25.974-13.599-9.662-6.987-17.816-12.451-18.121-12.143-1.507 1.527 6.152 17.956 18.23 39.102 19.454 34.06 17.529 31.487 23.278 31.112l4.828-.315 16.432-29.133c14.527-25.755 22.445-42.205 20.241-42.05-.401.028-8.816 5.919-18.701 13.091Z" clip-rule="evenodd" fill-rule="evenodd"/>
    </g>
</svg>
