<svg width="449" height="313" viewBox="0 0 449 313" fill="none" xmlns="http://www.w3.org/2000/svg">
<path fill-rule="evenodd" clip-rule="evenodd" d="M0 0.686C0 1.064 2.248 5.627 4.995 10.826C7.742 16.026 15.602 31.534 22.462 45.291L34.934 70.304L68.484 94.167L102.035 118.03L92.565 118.55L83.097 119.07L86.29 123.46C88.49 126.486 90.658 128.172 93.267 128.891C95.349 129.463 107.314 132.831 119.859 136.374L142.666 142.817L154.007 137.715C160.244 134.908 165.347 132.289 165.347 131.894C165.347 131.5 149.288 118.36 129.659 102.695C110.03 87.029 73.053 57.515 47.486 37.106C21.918 16.698 0.776 0 0.5 0C0.225 0 0 0.309 0 0.686ZM443.6 3.966C441.022 6.074 403.934 35.615 361.183 69.612C318.431 103.609 283.458 131.686 283.464 132.007C283.47 132.327 288.438 135.012 294.504 137.973L305.533 143.356L324.019 138.222C334.186 135.399 346.128 132.094 350.558 130.879C357.76 128.904 358.934 128.219 361.677 124.39L364.745 120.11L355.797 119.07L346.849 118.03L380.292 94.112L413.736 70.194L423.561 50.956C429.539 39.2526 435.526 27.5536 441.521 15.859C445.995 7.137 449.348 0.03 448.971 0.067C448.594 0.104 446.177 1.857 443.6 3.966ZM317.37 20.538C305.969 36.9128 294.574 53.2915 283.184 69.674C266.28 93.982 252.144 114.199 251.772 114.601C251.402 115.003 248.16 113.857 244.571 112.056C232.772 106.134 216.958 106.886 203.031 114.032C200.268 115.45 197.899 116.462 197.768 116.28C197.635 116.099 192.972 109.165 187.403 100.872C166.079 69.112 132.189 19.192 131.277 18.198C128.953 15.664 140.404 38.735 166.634 89.433C175.66 106.877 183.679 121.666 184.455 122.296C186.305 123.801 188.83 130.151 188.236 131.809C187.559 133.699 186.096 133.401 185.678 131.289C185.481 130.288 184.087 132.817 182.578 136.915L179.837 144.361L184.402 160.226C186.914 168.952 188.968 176.562 188.968 177.139C188.968 177.715 185.175 170.332 180.539 160.731L172.109 143.275L174.344 139.344L176.577 135.413L174.301 134.78C172.776 134.356 168.008 135.926 159.875 139.534L147.729 144.92L148.385 148.462C148.875 151.112 148.702 151.911 147.694 151.634C146.954 151.43 133.453 146.938 117.692 141.651C101.932 136.364 88.884 132.193 88.698 132.382C88.511 132.57 98.633 140.371 111.191 149.715L134.024 166.706L149.429 169.638C157.901 171.25 165.777 172.799 166.928 173.082C168.267 173.41 170.601 176.596 173.4 181.913C177.203 189.141 179.075 191.325 187.673 198.565C193.116 203.149 197.711 206.756 197.885 206.581C198.057 206.405 197.288 202.086 196.174 196.984C193.143 183.105 192.807 183.745 201.549 186.734C213.047 190.665 212.349 190.249 210.177 191.868C208.353 193.227 208.394 193.504 211.204 198.784C213.9 203.85 222.724 212.132 225.427 212.132C228.168 212.132 236.957 203.845 239.715 198.66L242.707 193.037L240.361 191.461C238.085 189.93 238.268 189.798 246.537 186.984C251.224 185.39 255.232 184.261 255.446 184.477C255.799 184.834 253.33 199.675 251.881 205.903C251.408 207.94 253.518 206.412 261.634 198.846C269.634 191.387 273.008 187.364 276.46 181.171L280.928 173.151L297.517 170.024L314.106 166.896L336.218 150.301C348.379 141.175 358.205 133.58 358.052 133.425C357.899 133.271 345.023 137.348 329.439 142.486C313.857 147.624 300.811 151.827 300.449 151.827C300.087 151.827 300.083 150.257 300.438 148.337L301.084 144.847L289.957 139.259C280.512 134.514 275.952 133.165 274.406 134.658C274.232 134.826 274.819 136.733 275.711 138.895L277.333 142.826L269.452 159.82C265.117 169.167 261.413 176.654 261.22 176.459C261.028 176.263 263.094 168.811 265.815 159.899L270.759 143.694L266.845 137.105C264.692 133.48 262.465 130.358 261.895 130.166C259.577 129.383 262.227 119.59 264.758 119.589C266.774 119.588 268.828 115.965 296.295 63.955C316.548 25.607 321.692 15.599 321.151 15.599C320.969 15.599 319.267 17.82 317.37 20.538ZM206.412 125.693C206.403 126.626 205.985 128.047 205.482 128.851C204.799 129.943 203.897 128.969 201.903 124.985C200.438 122.056 199.238 119.386 199.238 119.051C199.238 118.718 200.856 119.694 202.833 121.221C204.81 122.747 206.42 124.759 206.412 125.693ZM247.422 123.681C244.757 128.482 243.399 129.062 243.399 125.396C243.399 123.184 248.334 118.001 249.406 119.087C249.605 119.289 248.713 121.356 247.422 123.681ZM193.222 144.572C196.14 145.392 198.186 147.277 202.529 153.145C205.59 157.282 210.063 164.294 212.468 168.726C216.402 175.975 216.636 176.785 214.8 176.785C211.425 176.785 204.133 173.093 199.538 169.056C194.718 164.821 189.483 154.862 188.431 147.928C187.698 143.096 187.778 143.04 193.222 144.572ZM260.537 148.707C259.754 155.392 256.938 161.629 252.228 167.103C248.193 171.794 238.666 177.166 235.371 176.609C233.551 176.3 233.94 175.211 239.221 165.797C248.171 149.848 251.216 145.767 254.989 144.662C261.039 142.891 261.202 143.01 260.537 148.707ZM155.895 188.003C150.294 194.066 146.195 200.448 144.173 206.25C142.698 210.484 142.744 210.684 149.652 230.057C153.483 240.803 156.756 248.727 156.926 247.666C157.094 246.604 156.53 239.97 155.671 232.925L154.109 220.113L156.845 215.024C159.804 209.519 163.633 204.863 165.202 204.863C165.742 204.863 168.118 207.203 170.483 210.064C172.848 212.923 175.208 214.998 175.728 214.673C176.248 214.347 177.562 212.317 178.649 210.161L180.624 206.241L171.866 195.933C167.048 190.264 162.536 185.02 161.839 184.283C160.814 183.199 159.672 183.914 155.895 188.003ZM278.154 194.683L268.233 206.417L270.68 210.57C272.025 212.854 273.484 214.816 273.924 214.928C274.363 215.042 276.463 212.824 278.59 209.999C280.716 207.174 282.934 204.863 283.517 204.863C285.235 204.863 289.357 209.912 291.963 215.209L294.387 220.133L292.609 235.116C291.631 243.356 290.941 250.214 291.074 250.354C291.207 250.494 294.659 241.401 298.745 230.147L306.175 209.685L302.447 202.048C300.397 197.848 296.324 191.832 293.397 188.68L288.074 182.949L278.154 194.683ZM178.792 222.194C176.443 227.151 174.883 231.548 175.326 231.965C175.768 232.382 186.491 239.792 199.154 248.43C212.831 257.76 223.172 264.138 224.625 264.138C226.101 264.138 236.091 257.849 249.814 248.279C262.322 239.558 273.044 232.084 273.639 231.673C274.337 231.192 273.12 227.761 270.228 222.054C267.755 217.175 265.523 213.182 265.268 213.182C265.014 213.182 258.648 218.063 251.123 224.028C243.598 229.992 235.564 235.842 233.272 237.026C227.772 239.868 221.298 239.791 215.587 236.816C210.269 234.047 192.624 220.884 188.13 216.333C186.419 214.601 184.578 213.182 184.041 213.182C183.503 213.182 181.14 217.238 178.792 222.194ZM247.507 254.402C237.622 261.575 228.526 267.845 227.294 268.337C223.394 269.895 219.352 267.778 201.32 254.738C191.658 247.751 183.504 242.287 183.199 242.595C181.692 244.122 189.351 260.551 201.429 281.697C220.883 315.757 218.958 313.184 224.707 312.809L229.535 312.494L245.967 283.361C260.494 257.606 268.412 241.156 266.208 241.311C265.807 241.339 257.392 247.23 247.507 254.402Z" fill="#EAB308"/>
</svg>
